<svg width="18" height="4" viewBox="0 0 18 4" fill="none" xmlns="http://www.w3.org/2000/svg">
<path d="M14.7143 2C14.7143 2.55228 15.226 3 15.8571 3C16.4883 3 17 2.55228 17 2C17 1.44772 16.4883 1 15.8571 1C15.226 1 14.7143 1.44772 14.7143 2Z" stroke="#423F3F" stroke-width="2" stroke-linecap="round" stroke-linejoin="round"/>
<path d="M7.85714 2C7.85714 2.55228 8.36882 3 9 3C9.63118 3 10.1429 2.55228 10.1429 2C10.1429 1.44772 9.63118 1 9 1C8.36882 1 7.85714 1.44772 7.85714 2Z" stroke="#423F3F" stroke-width="2" stroke-linecap="round" stroke-linejoin="round"/>
<path d="M1 2C1 2.55228 1.51167 3 2.14286 3C2.77404 3 3.28571 2.55228 3.28571 2C3.28571 1.44772 2.77404 1 2.14286 1C1.51167 1 1 1.44772 1 2Z" stroke="#423F3F" stroke-width="2" stroke-linecap="round" stroke-linejoin="round"/>
</svg>
