<svg width="26" height="26" viewBox="0 0 26 26" fill="none" xmlns="http://www.w3.org/2000/svg">
<rect x="0.5" y="0.5" width="25" height="25" rx="4" stroke="#000" />
<path d="M10 12.9972C10 13.095 10.0177 13.1854 10.053 13.2682C10.0923 13.351 10.1513 13.4301 10.2299 13.5054L14.8212 17.808C14.9548 17.936 15.1159 18 15.3045 18C15.4342 18 15.5501 17.9699 15.6523 17.9097C15.7583 17.8532 15.8428 17.7741 15.9057 17.6725C15.9686 17.5746 16 17.4655 16 17.345C16 17.1643 15.9273 17.0043 15.7819 16.865L11.6444 12.9972L15.7819 9.12931C15.9273 8.99002 16 8.83192 16 8.655C16 8.53077 15.9686 8.41973 15.9057 8.32185C15.8428 8.22398 15.7583 8.14681 15.6523 8.09034C15.5501 8.03011 15.4342 8 15.3045 8C15.1159 8 14.9548 8.06211 14.8212 8.18634L10.2299 12.489C10.1513 12.5643 10.0923 12.6433 10.053 12.7261C10.0177 12.809 10 12.8993 10 12.9972Z" fill="black"/>
</svg>
