<svg width="104" height="104" viewBox="0 0 104 104" fill="none" xmlns="http://www.w3.org/2000/svg">
<path d="M23.3408 90.4452L32.2246 91.1559C34.4628 91.3345 36.5859 92.217 38.2948 93.6733L45.0827 99.4514C49.0707 102.85 54.9342 102.849 58.9222 99.4508L65.7063 93.6728C67.4153 92.2164 69.5404 91.3327 71.7786 91.1541L80.661 90.4479C85.8841 90.0311 90.0329 85.8824 90.4497 80.6594L91.1604 71.7757C91.339 69.5375 92.2141 67.4156 93.6704 65.7066L99.4511 58.9234C102.85 54.9354 102.85 49.0662 99.4511 45.0783L93.673 38.2942C92.2166 36.5853 91.3341 34.4602 91.1555 32.222L90.4466 23.338M23.3371 90.4505C18.114 90.0337 13.9664 85.8861 13.5496 80.6631M13.5549 80.6603L12.846 71.7762C12.6674 69.5381 11.7891 67.4141 10.3327 65.7052L4.54919 58.9234C1.15064 54.9354 1.15009 49.0657 4.54864 45.0777L10.3268 38.2959C11.7831 36.587 12.6656 34.463 12.8442 32.2248L13.5549 23.338M13.5496 23.3433C13.9664 18.1202 18.114 13.9727 23.3371 13.5559L32.224 12.8452C34.4622 12.6666 36.5862 11.7841 38.2951 10.3278L45.077 4.54969C49.065 1.15117 54.9348 1.14957 58.9228 4.54809L65.7046 10.3314C67.4136 11.7877 69.5375 12.6617 71.7757 12.8403L80.6627 13.551M80.6574 13.5559C85.8804 13.9727 90.028 18.1202 90.4448 23.3433" stroke="#1E1E1E" stroke-width="4" stroke-linecap="round" stroke-linejoin="round"/>
</svg>
